<?xml version="1.0" standalone="no"?>
<!DOCTYPE svg PUBLIC "-//W3C//DTD SVG 20010904//EN"
 "http://www.w3.org/TR/2001/REC-SVG-20010904/DTD/svg10.dtd">
<svg version="1.0" xmlns="http://www.w3.org/2000/svg"
 width="1200.000000pt" height="1200.000000pt" viewBox="0 0 1200.000000 1200.000000"
 preserveAspectRatio="xMidYMid meet">
<metadata>
Created by potrace 1.11, written by Peter Selinger 2001-2013
</metadata>
<g transform="translate(0.000000,1200.000000) scale(0.100000,-0.100000)"
fill="#000000" stroke="none">
<path d="M4145 9029 c-27 -3 -72 -9 -98 -13 -69 -10 -258 -60 -347 -92 -104
-37 -277 -124 -379 -191 -47 -30 -88 -58 -91 -62 -3 -3 -32 -26 -65 -51 -139
-103 -337 -326 -454 -513 -37 -60 -141 -259 -141 -270 0 -3 -8 -22 -17 -43 -9
-22 -17 -41 -18 -44 -1 -3 -4 -12 -7 -20 -39 -102 -81 -277 -103 -430 -13 -94
-14 -413 0 -490 21 -127 52 -252 87 -359 73 -220 112 -287 585 -1016 121 -186
217 -335 228 -353 6 -9 14 -21 18 -26 16 -21 237 -361 244 -375 3 -7 41 -66
83 -130 42 -64 98 -150 125 -191 27 -41 82 -127 123 -190 41 -63 89 -137 107
-165 315 -485 407 -621 463 -689 266 -322 620 -547 1022 -652 52 -14 111 -27
130 -30 19 -3 58 -9 85 -15 68 -15 390 -20 495 -8 440 49 862 252 1179 568
154 155 147 145 811 1171 144 223 291 448 325 500 134 204 180 275 185 285 3
6 27 44 54 85 101 153 197 302 360 555 92 143 176 272 186 286 33 46 137 270
170 364 78 223 109 422 105 675 -2 183 -5 206 -36 360 -69 339 -212 636 -429
892 -310 365 -775 615 -1255 675 -123 15 -439 9 -541 -11 -12 -3 -37 -7 -55
-10 -75 -12 -294 -73 -344 -96 -11 -5 -47 -20 -80 -34 -264 -108 -555 -329
-744 -566 -42 -52 -168 -237 -280 -410 -113 -173 -250 -385 -306 -470 -55 -85
-120 -184 -143 -220 -23 -36 -46 -72 -52 -80 -8 -13 -607 -935 -831 -1280
-254 -393 -324 -534 -394 -800 -3 -10 -28 -126 -30 -140 -2 -8 -6 -43 -10 -78
-4 -34 -11 -64 -14 -67 -4 -2 -16 10 -26 28 -10 18 -55 88 -100 157 -45 69
-115 177 -156 240 -42 63 -109 167 -150 230 -41 63 -110 170 -154 237 -44 68
-110 169 -146 225 -37 57 -110 170 -164 252 -53 82 -114 181 -135 220 -78 146
-149 362 -167 510 -13 101 -7 373 10 461 23 115 22 113 61 228 188 562 663
962 1241 1044 102 15 393 7 465 -12 8 -2 31 -6 50 -9 63 -9 207 -55 299 -95
121 -52 221 -110 327 -189 81 -61 92 -66 139 -67 69 0 95 19 161 121 106 162
91 204 -132 355 -218 147 -500 262 -744 304 -178 31 -455 42 -585 24z m3781
-447 c659 -132 1141 -648 1232 -1317 14 -108 7 -364 -13 -470 -14 -75 -58
-223 -85 -292 -56 -139 -91 -196 -655 -1063 -172 -265 -258 -397 -351 -540
-52 -80 -94 -143 -95 -140 -1 3 -3 14 -4 25 -5 44 -16 121 -20 140 -47 238
-126 442 -251 655 -36 60 -194 307 -244 380 -6 8 -109 168 -231 355 -254 393
-413 638 -590 909 -70 107 -128 198 -130 202 -2 5 -53 83 -113 174 -60 91
-109 170 -109 175 0 12 126 202 172 260 150 188 394 370 611 455 47 18 94 36
105 41 59 24 190 52 297 65 29 4 55 8 57 10 13 12 328 -6 417 -24z m-1787
-1407 c71 -110 183 -282 248 -382 65 -101 163 -252 218 -336 55 -85 142 -219
193 -298 51 -79 142 -218 201 -309 247 -380 341 -530 380 -608 39 -77 103
-252 115 -312 2 -14 10 -50 16 -80 48 -234 24 -569 -56 -783 -39 -104 -71
-176 -101 -230 -18 -33 -33 -61 -33 -63 0 -2 -27 -42 -61 -90 -137 -197 -315
-355 -526 -470 l-68 -37 70 74 c97 102 114 124 175 213 110 164 201 381 237
566 25 132 36 396 19 484 -3 16 -8 50 -11 75 -25 180 -119 416 -243 606 -25
39 -82 126 -127 195 -45 69 -157 242 -250 385 -92 143 -191 296 -220 340 -216
331 -265 407 -265 411 0 3 -5 10 -11 17 -5 7 -38 55 -72 107 -34 53 -95 147
-136 210 -41 62 -74 118 -75 124 -1 10 246 397 251 392 1 -1 61 -92 132 -201z"/>
</g>
</svg>
